<?xml version="1.0" encoding="utf-8"?>
<!-- Generator: Adobe Illustrator 15.0.0, SVG Export Plug-In . SVG Version: 6.00 Build 0)  -->
<!DOCTYPE svg PUBLIC "-//W3C//DTD SVG 1.1//EN" "http://www.w3.org/Graphics/SVG/1.1/DTD/svg11.dtd">
<svg version="1.1" id="Layer_1" xmlns="http://www.w3.org/2000/svg" xmlns:xlink="http://www.w3.org/1999/xlink" x="0px" y="0px"
	 width="190px" height="85px" viewBox="0 0 190 85" enable-background="new 0 0 190 85" xml:space="preserve">
<path fill-rule="evenodd" clip-rule="evenodd" fill="#9E032A" d="M61.529,57.207c2.902,1.68,5.443-2.728,2.55-4.402l-7.558-4.56
	c-2.903-1.682-5.455,2.725-2.554,4.4L61.529,57.207z M20.262,52.652c-2.897,1.674-0.357,6.084,2.544,4.41l7.76-4.402
	c2.906-1.682,0.357-6.084-2.54-4.41L20.262,52.652z M39.77,66.991c0,1.407,1.144,2.541,2.548,2.541c1.406,0,2.541-1.134,2.541-2.541
	V48.402c0-1.407-1.139-2.546-2.541-2.546c-1.404,0-2.548,1.139-2.548,2.546V66.991z M22.881,28.927
	c-2.901-1.675-5.442,2.736-2.534,4.411L36.506,42.5c2.896,1.674,5.446-2.736,2.54-4.415L22.881,28.927z M64.196,33.276
	c2.896-1.671,0.354-6.079-2.554-4.404l-15.983,9.302c-2.902,1.675-0.35,6.082,2.552,4.407L64.196,33.276z M0,0.611h83.778v83.778H0
	V0.611z M44.87,19.079c0-1.402-1.137-2.543-2.543-2.543s-2.545,1.142-2.545,2.543l-0.004,8.922c0,1.407,1.143,2.551,2.549,2.551
	c1.4,0,2.547-1.141,2.547-2.551L44.87,19.079z"/>
<g>
	<polygon fill-rule="evenodd" clip-rule="evenodd" fill="#F1A35F" points="182.929,75.164 179.289,72.521 175.657,75.164 
		177.043,70.889 173.411,68.248 177.903,68.248 179.289,63.974 180.679,68.248 185.175,68.248 181.535,70.889 	"/>
	<polygon fill-rule="evenodd" clip-rule="evenodd" fill="#FCD858" points="178.7,48.095 175.061,45.455 171.426,48.095 
		172.814,43.822 169.181,41.182 173.674,41.182 175.061,36.905 176.45,41.182 180.946,41.182 177.31,43.822 	"/>
	<polygon fill-rule="evenodd" clip-rule="evenodd" fill="#729686" points="157.328,25.534 153.692,22.894 150.057,25.534 
		151.446,21.26 147.811,18.619 152.307,18.619 153.692,14.344 155.081,18.619 159.574,18.619 155.938,21.26 	"/>
	<polygon fill-rule="evenodd" clip-rule="evenodd" fill="#E78769" points="124.986,15.639 121.351,12.997 117.719,15.639 
		119.104,11.364 115.471,8.722 119.965,8.722 121.351,4.451 122.74,8.722 127.236,8.722 123.597,11.364 	"/>
	<path fill-rule="evenodd" clip-rule="evenodd" fill="#C7C8CA" d="M163.021,39.441c-3.367,0-6.372,1.804-7.994,4.837
		c-0.963,1.805-1.409,3.876-1.409,6.492c0,3.064,0.839,5.59,2.522,7.48c1.712,1.954,3.936,2.888,6.82,2.888
		c2.376,0,4.145-0.601,5.798-1.952l-1.922-2.648l-0.42,0.332c-1.023,0.692-2.015,1.024-3.155,1.024
		c-1.804,0-3.186-0.813-4.028-2.344c-0.629-1.144-0.871-2.738-0.871-5.59c0-2.437,0.362-4.178,1.174-5.381
		c0.752-1.113,2.134-1.802,3.543-1.802c1.174,0,2.286,0.391,3.338,1.169l1.894-2.856C167.169,40.101,165.095,39.441,163.021,39.441z
		 M135.717,60.776h4.178V51.46h6.01v9.316h4.267V39.893h-4.267v8.111h-6.01v-8.111h-4.178V60.776z M122.142,48.458
		c0.389-1.563,0.991-4.027,0.991-4.027s0.63,2.732,0.839,3.697c0.45,2.012,1.145,4.204,1.145,4.204h-4.088
		C121.477,50.951,121.749,49.96,122.142,48.458z M114.147,60.776h4.385l1.473-4.956h6.131l1.473,4.956h4.507l-6.581-20.946h-4.538
		L114.147,60.776z M105.77,39.262c-4.418,0-7.479,2.643-7.479,6.461c0,1.171,0.301,2.25,0.871,3.182
		c0.749,1.264,2.042,2.075,4.116,2.645l2.315,0.635c1.862,0.477,2.733,1.35,2.733,2.702c0,1.864-1.264,2.854-3.666,2.854
		c-2.105,0-3.787-0.66-5.739-1.682l-1.562,3.276c2.102,1.203,4.746,1.893,7.119,1.893c5.199,0,8.624-2.797,8.624-7.03
		c0-3.098-1.863-5.293-5.287-6.225l-2.526-0.688c-1.742-0.484-2.313-1.024-2.313-2.105c0-1.413,1.201-2.402,2.915-2.402
		c1.563,0,2.973,0.45,4.867,1.594l1.985-3.009C110.91,40.042,108.326,39.262,105.77,39.262z"/>
</g>
</svg>
