<?xml version="1.0" encoding="utf-8"?>
<!-- Generator: Adobe Illustrator 15.0.0, SVG Export Plug-In . SVG Version: 6.00 Build 0)  -->
<!DOCTYPE svg PUBLIC "-//W3C//DTD SVG 1.1//EN" "http://www.w3.org/Graphics/SVG/1.1/DTD/svg11.dtd">
<svg version="1.1" id="Layer_1" xmlns="http://www.w3.org/2000/svg" xmlns:xlink="http://www.w3.org/1999/xlink" x="0px" y="0px"
	 width="190px" height="50px" viewBox="0 0 190 50" enable-background="new 0 0 190 50" xml:space="preserve">
<g>
	<path fill-rule="evenodd" clip-rule="evenodd" fill="#9E032A" d="M31.287,27.535c1.154,0.668,2.165-1.085,1.014-1.751l-3.006-1.813
		c-1.154-0.669-2.169,1.084-1.016,1.75L31.287,27.535z M14.873,25.724c-1.152,0.666-0.142,2.42,1.012,1.754l3.086-1.751
		c1.156-0.669,0.142-2.42-1.01-1.754L14.873,25.724z M22.632,31.427c0,0.56,0.455,1.011,1.013,1.011c0.56,0,1.011-0.451,1.011-1.011
		v-7.394c0-0.56-0.453-1.013-1.011-1.013c-0.559,0-1.013,0.453-1.013,1.013V31.427z M15.915,16.287
		c-1.154-0.666-2.165,1.088-1.008,1.754l6.427,3.644c1.152,0.666,2.166-1.088,1.01-1.756L15.915,16.287z M32.348,18.017
		c1.152-0.665,0.141-2.417-1.016-1.751l-6.357,3.7c-1.154,0.666-0.139,2.419,1.015,1.753L32.348,18.017z M7.212,5.024h66.649v33.322
		H7.212V5.024z M24.661,12.37c0-0.558-0.452-1.012-1.012-1.012s-1.012,0.454-1.012,1.012l-0.001,3.549
		c0,0.56,0.454,1.015,1.014,1.015c0.557,0,1.013-0.454,1.013-1.015L24.661,12.37z"/>
	<path fill-rule="evenodd" clip-rule="evenodd" fill="#808285" d="M59.334,44.347c-0.307,0-0.461,0.309-0.461,0.925
		c0,0.642,0.156,0.962,0.464,0.962c0.141,0,0.244-0.054,0.31-0.164c0.103-0.175,0.155-0.456,0.155-0.843
		C59.802,44.641,59.646,44.347,59.334,44.347z M59.348,43.631c0.56,0,0.973,0.212,1.237,0.631c0.171,0.27,0.256,0.617,0.256,1.042
		c0,0.278-0.053,0.548-0.158,0.81c-0.105,0.265-0.267,0.465-0.484,0.6c-0.254,0.157-0.56,0.236-0.915,0.236
		c-0.472,0-0.834-0.153-1.083-0.46c-0.244-0.302-0.364-0.698-0.364-1.188c0-0.578,0.163-1.016,0.493-1.31
		C58.595,43.752,58.935,43.631,59.348,43.631z M55.504,42.44v1.669c0.086-0.105,0.199-0.194,0.335-0.272
		c0.244-0.138,0.468-0.206,0.671-0.206c0.19,0,0.354,0.054,0.492,0.16c0.166,0.129,0.265,0.348,0.297,0.657l0.014,0.34v2.068h-0.994
		v-1.994c0-0.119-0.016-0.207-0.049-0.262c-0.061-0.112-0.161-0.167-0.297-0.167c-0.157,0-0.313,0.083-0.469,0.251v2.172H54.51
		V42.44H55.504z M52.041,43.743v0.353c0.351-0.311,0.7-0.465,1.049-0.465c0.178,0,0.336,0.057,0.472,0.169
		c0.15,0.124,0.242,0.325,0.274,0.606c0.014,0.098,0.02,0.249,0.02,0.449v2.001h-0.993v-2.001c0-0.281-0.111-0.422-0.333-0.422
		c-0.152,0-0.316,0.081-0.488,0.244v2.179h-0.993v-3.113H52.041z M50.388,42.44v0.886h-0.993V42.44H50.388z M50.388,43.743v3.113
		h-0.993v-3.113H50.388z M48.652,42.44v4.416h-1.1v-2.928v-0.479l-0.09,0.207l-0.763,3.2h-0.858l-0.706-2.928l-0.132-0.666v0.491
		v3.103h-1.101V42.44h1.743l0.538,2.232c0.073,0.313,0.117,0.559,0.133,0.74c0.018-0.152,0.054-0.37,0.108-0.651l0.471-2.321H48.652
		z M41.783,42.44v0.675c-0.094-0.03-0.175-0.047-0.249-0.047c-0.149,0-0.253,0.036-0.313,0.108c-0.05,0.06-0.074,0.172-0.074,0.336
		v0.23h0.636v0.69h-0.636v2.423h-0.993v-2.423h-0.483v-0.69h0.483c0-0.549,0.044-0.811,0.132-0.968c0.16-0.281,0.46-0.421,0.9-0.421
		C41.351,42.354,41.551,42.382,41.783,42.44z M37.992,44.347c-0.306,0-0.46,0.309-0.46,0.925c0,0.642,0.154,0.962,0.463,0.962
		c0.141,0,0.244-0.054,0.309-0.164c0.104-0.175,0.156-0.456,0.156-0.843C38.46,44.641,38.304,44.347,37.992,44.347z M38.005,43.631
		c0.56,0,0.974,0.212,1.237,0.631c0.171,0.27,0.257,0.617,0.257,1.042c0,0.278-0.053,0.548-0.158,0.81
		c-0.105,0.265-0.268,0.465-0.484,0.6c-0.255,0.157-0.561,0.236-0.916,0.236c-0.471,0-0.833-0.153-1.082-0.46
		c-0.243-0.302-0.365-0.698-0.365-1.188c0-0.578,0.163-1.016,0.495-1.31C37.253,43.752,37.592,43.631,38.005,43.631z M34.714,43.743
		l-0.983,3.032c-0.144,0.446-0.274,0.745-0.392,0.898c-0.205,0.264-0.521,0.394-0.947,0.394c-0.152,0-0.334-0.022-0.542-0.066
		v-0.726c0.144,0.043,0.268,0.064,0.368,0.064c0.227,0,0.385-0.097,0.473-0.285l0.067-0.198l-1.086-3.113h1.086l0.385,1.462
		c0.058,0.252,0.097,0.441,0.113,0.569l0.105-0.569l0.322-1.462H34.714z M31.046,42.89v0.854h0.643v0.69h-0.643v1.242
		c0,0.164,0.009,0.272,0.026,0.322c0.197,0.185,0.26,0.204,0.326,0.204c0.058,0,0.152-0.026,0.29-0.075v0.729
		c-0.186,0.025-0.401,0.04-0.65,0.04c-0.322,0-0.555-0.057-0.7-0.169c-0.133-0.104-0.218-0.252-0.259-0.438
		c-0.018-0.086-0.026-0.216-0.026-0.388v-1.468h-0.483v-0.69h0.483V42.89H31.046z M29.308,42.44v0.886h-0.994V42.44H29.308z
		 M29.308,43.743v3.113h-0.994v-3.113H29.308z M27.673,44.501l-0.912,0.073c-0.021-0.187-0.114-0.28-0.281-0.28
		c-0.098,0-0.178,0.032-0.237,0.098c-0.058,0.298,0.006,0.39,0.132,0.444c0.038,0.017,0.221,0.057,0.548,0.124
		c0.578,0.114,0.866,0.426,0.866,0.935c0,0.315-0.118,0.571-0.353,0.77c-0.224,0.189-0.554,0.285-0.989,0.285
		c-0.712,0-1.098-0.319-1.156-0.956l0.925-0.059c0.023,0.235,0.139,0.354,0.339,0.354c0.115,0,0.204-0.043,0.261-0.127
		c0.044-0.316-0.08-0.419-0.329-0.467c-0.27-0.054-0.453-0.095-0.55-0.124c-0.095-0.027-0.183-0.066-0.264-0.122
		c-0.265-0.171-0.395-0.43-0.395-0.781c0-0.314,0.12-0.572,0.361-0.772c0.21-0.175,0.49-0.264,0.841-0.264
		c0.475,0,0.813,0.13,1.015,0.388C27.583,44.13,27.643,44.291,27.673,44.501z M24.968,43.665v0.941
		c-0.077-0.02-0.149-0.026-0.221-0.026c-0.241,0-0.451,0.066-0.63,0.207c-0.115,0.083-0.213,0.202-0.295,0.356v1.713h-0.993v-3.113
		h0.993v0.278v0.37c0.088-0.176,0.187-0.316,0.299-0.423c0.215-0.211,0.45-0.317,0.705-0.317L24.968,43.665z M20.418,44.962h0.916
		c-0.003-0.146-0.023-0.266-0.066-0.36c-0.076-0.171-0.207-0.255-0.395-0.255c-0.154,0-0.272,0.068-0.355,0.207
		C20.453,44.66,20.42,44.798,20.418,44.962z M21.334,45.871l0.92,0.074c-0.047,0.211-0.125,0.388-0.232,0.526
		c-0.244,0.314-0.631,0.471-1.163,0.471c-0.515,0-0.9-0.158-1.156-0.476c-0.225-0.282-0.338-0.657-0.338-1.125
		c0-0.501,0.112-0.9,0.333-1.193c0.137-0.181,0.317-0.314,0.538-0.399c0.196-0.079,0.403-0.118,0.62-0.118
		c0.418,0,0.751,0.13,0.997,0.39c0.195,0.202,0.319,0.459,0.37,0.768c0.014,0.073,0.027,0.312,0.042,0.719h-1.846
		c0.002,0.238,0.027,0.405,0.078,0.494c0.083,0.151,0.215,0.226,0.396,0.226C21.127,46.227,21.273,46.108,21.334,45.871z
		 M19.266,43.743l-0.922,3.113h-1.112l-1.001-3.113h1.09l0.313,1.243c0.09,0.38,0.154,0.743,0.193,1.092
		c0.022-0.316,0.078-0.698,0.168-1.151l0.244-1.184H19.266z M15.968,42.44v0.886h-0.993V42.44H15.968z M15.968,43.743v3.113h-0.993
		v-3.113H15.968z M12.505,43.743v0.353c0.349-0.311,0.699-0.465,1.048-0.465c0.178,0,0.337,0.057,0.473,0.169
		c0.149,0.124,0.241,0.325,0.275,0.606c0.013,0.098,0.019,0.249,0.019,0.449v2.001h-0.993v-2.001c0-0.281-0.11-0.422-0.333-0.422
		c-0.154,0-0.317,0.081-0.488,0.244v2.179h-0.993v-3.113H12.505z M8.646,42.44v2.892c0,0.267,0.017,0.442,0.05,0.531
		c0.075,0.203,0.228,0.304,0.458,0.304c0.187,0,0.329-0.07,0.427-0.213c0.074-0.103,0.108-0.31,0.108-0.622V42.44h1.1v2.892
		c0,0.178-0.008,0.323-0.022,0.439c-0.045,0.36-0.217,0.65-0.513,0.87c-0.271,0.2-0.646,0.301-1.12,0.301
		c-0.556,0-0.977-0.159-1.262-0.479c-0.164-0.184-0.262-0.396-0.294-0.641c-0.021-0.17-0.033-0.376-0.033-0.617V42.44H8.646z"/>
</g>
<g>
	<g>
		<rect x="83.854" y="5.024" fill="#034EA2" width="49.981" height="33.322"/>
	</g>
	<g>
		<polygon fill="#FFF200" points="108.814,8.733 109.226,10.02 110.573,10.015 109.478,10.801 109.9,12.083 108.814,11.285 
			107.725,12.083 108.148,10.801 107.052,10.015 108.401,10.02 		"/>
		<polygon fill="#FFF200" points="108.814,30.959 109.226,32.244 110.573,32.238 109.478,33.028 109.9,34.309 108.814,33.511 
			107.725,34.309 108.148,33.028 107.052,32.238 108.401,32.244 		"/>
		<polygon fill="#FFF200" points="103.286,10.212 103.697,11.497 105.046,11.492 103.95,12.279 104.372,13.561 103.286,12.763 
			102.197,13.562 102.619,12.279 101.524,11.492 102.874,11.497 		"/>
		<polygon fill="#FFF200" points="99.215,14.29 99.626,15.575 100.976,15.569 99.88,16.358 100.304,17.638 99.215,16.842 
			98.128,17.639 98.548,16.358 97.454,15.569 98.804,15.575 		"/>
		<polygon fill="#FFF200" points="97.714,19.832 98.126,21.119 99.475,21.111 98.379,21.898 98.804,23.18 97.714,22.384 
			96.627,23.18 97.05,21.9 95.953,21.111 97.304,21.119 		"/>
		<polygon fill="#FFF200" points="99.199,25.376 99.61,26.662 100.961,26.656 99.866,27.443 100.289,28.726 99.199,27.928 
			98.111,28.726 98.533,27.443 97.439,26.658 98.788,26.662 		"/>
		<polygon fill="#FFF200" points="103.286,29.455 103.697,30.738 105.046,30.732 103.95,31.521 104.372,32.804 103.286,32.005 
			102.197,32.804 102.619,31.521 101.524,30.732 102.874,30.738 		"/>
		<polygon fill="#FFF200" points="114.345,10.212 113.935,11.497 112.585,11.492 113.68,12.279 113.256,13.561 114.345,12.763 
			115.435,13.562 115.012,12.279 116.105,11.492 114.758,11.497 		"/>
		<polygon fill="#FFF200" points="118.415,14.29 118.004,15.575 116.656,15.569 117.751,16.358 117.328,17.638 118.415,16.842 
			119.503,17.639 119.08,16.358 120.177,15.569 118.826,15.575 		"/>
		<polygon fill="#FFF200" points="119.916,19.832 119.506,21.119 118.156,21.111 119.251,21.898 118.828,23.18 119.916,22.384 
			121.006,23.18 120.584,21.9 121.678,21.111 120.327,21.119 		"/>
		<polygon fill="#FFF200" points="118.431,25.376 118.019,26.662 116.67,26.656 117.766,27.443 117.345,28.726 118.431,27.928 
			119.52,28.726 119.098,27.443 120.191,26.658 118.843,26.662 		"/>
		<polygon fill="#FFF200" points="114.345,29.455 113.935,30.738 112.585,30.732 113.68,31.521 113.256,32.804 114.345,32.005 
			115.435,32.804 115.012,31.521 116.105,30.732 114.758,30.738 		"/>
	</g>
</g>
<g>
	<path fill="#034EA2" d="M86.852,46.399h-2.703v-4.102h2.703v0.485h-2.158v1.123h2.158v0.485h-2.158v1.524h2.158V46.399z"/>
	<path fill="#034EA2" d="M89.383,43.888h-0.027c-0.078-0.018-0.152-0.032-0.226-0.039c-0.073-0.009-0.159-0.014-0.257-0.014
		c-0.16,0-0.314,0.035-0.463,0.106c-0.148,0.07-0.292,0.162-0.431,0.274v2.184h-0.517v-3.077h0.517v0.456
		c0.206-0.166,0.388-0.283,0.544-0.353c0.157-0.068,0.318-0.104,0.481-0.104c0.09,0,0.155,0.003,0.195,0.007
		c0.04,0.005,0.102,0.015,0.183,0.026V43.888z"/>
	<path fill="#034EA2" d="M92.112,46.399h-0.516v-0.326c-0.046,0.031-0.108,0.074-0.187,0.13c-0.077,0.057-0.153,0.101-0.227,0.134
		c-0.086,0.043-0.187,0.077-0.298,0.105c-0.112,0.029-0.243,0.044-0.395,0.044c-0.277,0-0.511-0.092-0.706-0.276
		c-0.191-0.184-0.288-0.418-0.288-0.702c0-0.233,0.05-0.423,0.15-0.566c0.1-0.145,0.242-0.258,0.428-0.34
		c0.188-0.083,0.413-0.139,0.675-0.169c0.264-0.029,0.545-0.051,0.847-0.065v-0.08c0-0.117-0.021-0.215-0.063-0.292
		c-0.041-0.077-0.1-0.139-0.178-0.182c-0.072-0.043-0.161-0.07-0.264-0.085c-0.104-0.015-0.211-0.021-0.323-0.021
		c-0.135,0-0.286,0.018-0.455,0.053c-0.167,0.036-0.339,0.089-0.517,0.155h-0.029v-0.526c0.103-0.027,0.248-0.058,0.438-0.092
		c0.192-0.031,0.379-0.048,0.565-0.048c0.217,0,0.405,0.018,0.566,0.053c0.16,0.036,0.3,0.098,0.417,0.184
		c0.116,0.085,0.205,0.193,0.265,0.328c0.061,0.134,0.092,0.3,0.092,0.498V46.399z M91.597,45.643v-0.857
		c-0.158,0.011-0.345,0.023-0.559,0.042c-0.214,0.018-0.383,0.046-0.508,0.08c-0.149,0.041-0.269,0.108-0.36,0.197
		c-0.093,0.089-0.139,0.211-0.139,0.367c0,0.176,0.054,0.311,0.159,0.399c0.108,0.089,0.271,0.133,0.488,0.133
		c0.182,0,0.348-0.035,0.499-0.106C91.328,45.827,91.468,45.742,91.597,45.643z"/>
	<path fill="#034EA2" d="M95.11,45.514c0,0.28-0.115,0.51-0.348,0.691c-0.232,0.181-0.551,0.27-0.952,0.27
		c-0.228,0-0.438-0.026-0.627-0.082c-0.189-0.054-0.35-0.112-0.478-0.178v-0.58h0.027c0.163,0.122,0.346,0.22,0.545,0.293
		c0.201,0.073,0.393,0.107,0.577,0.107c0.227,0,0.405-0.036,0.534-0.108c0.128-0.073,0.192-0.189,0.192-0.348
		c0-0.121-0.035-0.213-0.105-0.275c-0.069-0.063-0.203-0.116-0.401-0.16c-0.073-0.018-0.17-0.036-0.287-0.057
		c-0.119-0.021-0.228-0.047-0.325-0.073c-0.27-0.071-0.461-0.176-0.574-0.314c-0.112-0.139-0.169-0.309-0.169-0.512
		c0-0.127,0.025-0.246,0.079-0.358c0.052-0.11,0.131-0.211,0.237-0.3c0.104-0.086,0.234-0.154,0.394-0.206
		c0.159-0.049,0.337-0.074,0.532-0.074c0.184,0,0.37,0.022,0.559,0.067c0.188,0.045,0.345,0.099,0.47,0.163v0.554h-0.027
		c-0.133-0.098-0.293-0.179-0.482-0.246s-0.375-0.101-0.557-0.101c-0.189,0-0.35,0.036-0.479,0.109
		c-0.13,0.071-0.195,0.181-0.195,0.323c0,0.127,0.038,0.223,0.118,0.287c0.077,0.064,0.201,0.116,0.374,0.156
		c0.097,0.021,0.203,0.045,0.321,0.066c0.118,0.022,0.218,0.043,0.297,0.061c0.241,0.055,0.426,0.149,0.557,0.284
		C95.046,45.108,95.11,45.289,95.11,45.514z"/>
	<path fill="#034EA2" d="M100.152,46.399h-0.52v-1.751c0-0.133-0.006-0.26-0.018-0.384c-0.011-0.122-0.037-0.221-0.075-0.294
		c-0.042-0.079-0.103-0.139-0.182-0.18c-0.079-0.04-0.193-0.061-0.341-0.061c-0.146,0-0.292,0.036-0.437,0.109
		c-0.146,0.072-0.289,0.164-0.435,0.276c0.006,0.042,0.01,0.091,0.013,0.147c0.004,0.056,0.006,0.112,0.006,0.167v1.969h-0.517
		v-1.751c0-0.136-0.008-0.266-0.019-0.388c-0.013-0.122-0.037-0.22-0.076-0.293c-0.042-0.079-0.103-0.139-0.183-0.178
		c-0.078-0.039-0.192-0.06-0.341-0.06c-0.142,0-0.284,0.034-0.426,0.104c-0.143,0.07-0.284,0.159-0.425,0.269v2.296h-0.52v-3.077
		h0.52v0.343c0.161-0.135,0.322-0.239,0.482-0.313c0.161-0.076,0.332-0.115,0.514-0.115c0.21,0,0.388,0.045,0.533,0.134
		c0.146,0.089,0.256,0.21,0.327,0.366c0.209-0.177,0.399-0.304,0.572-0.382c0.173-0.077,0.358-0.118,0.554-0.118
		c0.339,0,0.588,0.104,0.749,0.309c0.16,0.204,0.241,0.49,0.241,0.857V46.399z"/>
	<path fill="#034EA2" d="M103.443,46.399h-0.519v-0.341c-0.175,0.138-0.342,0.243-0.502,0.316c-0.159,0.074-0.336,0.111-0.529,0.111
		c-0.322,0-0.574-0.1-0.754-0.296c-0.181-0.198-0.271-0.488-0.271-0.87v-1.998h0.519v1.753c0,0.154,0.007,0.29,0.021,0.4
		c0.015,0.111,0.046,0.206,0.094,0.284c0.05,0.082,0.113,0.141,0.192,0.178s0.193,0.056,0.345,0.056c0.135,0,0.28-0.035,0.439-0.104
		c0.159-0.07,0.307-0.159,0.445-0.269v-2.298h0.519V46.399z"/>
	<path fill="#034EA2" d="M106.467,45.514c0,0.28-0.116,0.51-0.348,0.691c-0.232,0.181-0.551,0.27-0.953,0.27
		c-0.227,0-0.436-0.026-0.626-0.082c-0.19-0.054-0.35-0.112-0.479-0.178v-0.58h0.028c0.163,0.122,0.345,0.22,0.546,0.293
		c0.199,0.073,0.391,0.107,0.573,0.107c0.229,0,0.407-0.036,0.536-0.108c0.13-0.073,0.193-0.189,0.193-0.348
		c0-0.121-0.035-0.213-0.105-0.275c-0.069-0.063-0.203-0.116-0.401-0.16c-0.073-0.018-0.17-0.036-0.288-0.057
		c-0.119-0.021-0.227-0.047-0.324-0.073c-0.271-0.071-0.461-0.176-0.574-0.314s-0.169-0.309-0.169-0.512
		c0-0.127,0.025-0.246,0.078-0.358c0.052-0.11,0.131-0.211,0.237-0.3c0.104-0.086,0.234-0.154,0.394-0.206
		c0.158-0.049,0.336-0.074,0.532-0.074c0.185,0,0.371,0.022,0.559,0.067c0.188,0.045,0.345,0.099,0.47,0.163v0.554h-0.028
		c-0.132-0.098-0.293-0.179-0.481-0.246c-0.189-0.067-0.374-0.101-0.556-0.101c-0.189,0-0.35,0.036-0.48,0.109
		c-0.131,0.071-0.194,0.181-0.194,0.323c0,0.127,0.038,0.223,0.117,0.287c0.077,0.064,0.202,0.116,0.375,0.156
		c0.096,0.021,0.202,0.045,0.321,0.066c0.118,0.022,0.217,0.043,0.296,0.061c0.241,0.055,0.427,0.149,0.557,0.284
		S106.467,45.289,106.467,45.514z"/>
	<path fill="#034EA2" d="M113.021,46.449h-0.545v-3.533l-1.14,2.404h-0.325l-1.133-2.404v3.533h-0.51v-4.102h0.744l1.093,2.284
		l1.059-2.284h0.757V46.449z"/>
	<path fill="#034EA2" d="M116.392,46.449h-0.52v-0.341c-0.174,0.137-0.341,0.243-0.5,0.316c-0.16,0.074-0.337,0.11-0.529,0.11
		c-0.323,0-0.575-0.099-0.756-0.296c-0.18-0.198-0.271-0.488-0.271-0.87v-1.997h0.519v1.753c0,0.155,0.007,0.29,0.021,0.4
		c0.016,0.111,0.047,0.206,0.095,0.286c0.049,0.08,0.114,0.138,0.192,0.175c0.079,0.037,0.194,0.055,0.344,0.055
		c0.136,0,0.281-0.034,0.439-0.104c0.16-0.07,0.308-0.159,0.445-0.267v-2.298h0.52V46.449z"/>
	<path fill="#034EA2" d="M119.721,46.449h-0.52v-1.751c0-0.142-0.008-0.276-0.023-0.399c-0.017-0.123-0.048-0.221-0.092-0.29
		c-0.046-0.077-0.112-0.135-0.199-0.172c-0.086-0.038-0.197-0.056-0.335-0.056c-0.142,0-0.289,0.033-0.444,0.104
		c-0.154,0.068-0.302,0.158-0.443,0.266v2.298h-0.518v-3.077h0.518v0.342c0.162-0.134,0.329-0.238,0.501-0.314
		c0.173-0.076,0.35-0.112,0.532-0.112c0.333,0,0.587,0.101,0.762,0.3c0.174,0.201,0.262,0.488,0.262,0.866V46.449z"/>
	<path fill="#034EA2" d="M123,46.449h-0.519v-0.322c-0.147,0.129-0.304,0.229-0.465,0.301c-0.161,0.072-0.337,0.107-0.526,0.107
		c-0.367,0-0.658-0.143-0.874-0.425c-0.216-0.281-0.324-0.674-0.324-1.177c0-0.261,0.037-0.492,0.111-0.696
		c0.075-0.204,0.176-0.378,0.302-0.521c0.125-0.14,0.271-0.247,0.437-0.32c0.166-0.073,0.338-0.109,0.517-0.109
		c0.162,0,0.305,0.016,0.431,0.051c0.124,0.034,0.256,0.088,0.393,0.157v-1.331H123V46.449z M122.481,45.691v-1.766
		c-0.138-0.063-0.264-0.105-0.374-0.129c-0.109-0.024-0.23-0.036-0.36-0.036c-0.29,0-0.517,0.101-0.678,0.303
		c-0.161,0.201-0.243,0.488-0.243,0.86c0,0.364,0.063,0.643,0.188,0.832c0.125,0.19,0.325,0.285,0.602,0.285
		c0.146,0,0.296-0.031,0.446-0.098C122.212,45.878,122.353,45.795,122.481,45.691z"/>
	<path fill="#034EA2" d="M126.313,46.449h-0.517v-0.341c-0.175,0.137-0.343,0.243-0.503,0.316c-0.158,0.074-0.335,0.11-0.528,0.11
		c-0.323,0-0.575-0.099-0.754-0.296c-0.182-0.198-0.271-0.488-0.271-0.87v-1.997h0.518v1.753c0,0.155,0.008,0.29,0.022,0.4
		c0.014,0.111,0.046,0.206,0.093,0.286c0.051,0.08,0.113,0.138,0.194,0.175c0.077,0.037,0.192,0.055,0.344,0.055
		c0.134,0,0.279-0.034,0.439-0.104c0.159-0.07,0.307-0.159,0.445-0.267v-2.298h0.517V46.449z"/>
	<path fill="#034EA2" d="M129.338,45.562c0,0.281-0.115,0.512-0.348,0.692c-0.231,0.181-0.551,0.27-0.952,0.27
		c-0.228,0-0.437-0.026-0.627-0.081c-0.189-0.054-0.349-0.112-0.478-0.178v-0.58h0.028c0.163,0.122,0.345,0.22,0.545,0.293
		c0.2,0.072,0.392,0.107,0.575,0.107c0.229,0,0.406-0.035,0.535-0.109c0.128-0.072,0.191-0.189,0.191-0.347
		c0-0.121-0.034-0.213-0.104-0.275c-0.069-0.063-0.203-0.116-0.401-0.16c-0.073-0.017-0.17-0.035-0.288-0.057
		c-0.118-0.023-0.226-0.047-0.323-0.073c-0.271-0.071-0.462-0.176-0.574-0.316c-0.113-0.137-0.17-0.308-0.17-0.51
		c0-0.127,0.026-0.246,0.079-0.358c0.052-0.112,0.131-0.213,0.237-0.301c0.104-0.086,0.234-0.154,0.393-0.205
		c0.16-0.051,0.337-0.076,0.533-0.076c0.184,0,0.369,0.022,0.559,0.069c0.188,0.043,0.345,0.099,0.47,0.163v0.554h-0.028
		c-0.132-0.097-0.293-0.18-0.482-0.246c-0.188-0.067-0.374-0.101-0.556-0.101c-0.189,0-0.349,0.036-0.479,0.109
		c-0.131,0.072-0.196,0.181-0.196,0.321c0,0.129,0.04,0.224,0.119,0.287c0.077,0.064,0.202,0.117,0.374,0.157
		c0.097,0.022,0.203,0.044,0.322,0.066c0.117,0.023,0.217,0.042,0.296,0.061c0.241,0.056,0.427,0.15,0.556,0.284
		C129.272,45.158,129.338,45.339,129.338,45.562z"/>
</g>
<g>
	<polygon fill-rule="evenodd" clip-rule="evenodd" fill="#F1A35F" points="186.062,40.39 184.197,39.036 182.337,40.39 
		183.047,38.2 181.187,36.848 183.487,36.848 184.197,34.658 184.909,36.848 187.212,36.848 185.348,38.2 	"/>
	<polygon fill-rule="evenodd" clip-rule="evenodd" fill="#FCD858" points="183.896,26.525 182.031,25.173 180.17,26.525 
		180.881,24.337 179.02,22.984 181.321,22.984 182.031,20.794 182.743,22.984 185.046,22.984 183.184,24.337 	"/>
	<polygon fill-rule="evenodd" clip-rule="evenodd" fill="#729686" points="172.949,14.97 171.087,13.617 169.225,14.97 
		169.937,12.781 168.074,11.428 170.377,11.428 171.087,9.238 171.798,11.428 174.1,11.428 172.237,12.781 	"/>
	<polygon fill-rule="evenodd" clip-rule="evenodd" fill="#E78769" points="156.384,9.901 154.521,8.548 152.661,9.901 
		153.371,7.712 151.51,6.359 153.812,6.359 154.521,4.171 155.233,6.359 157.536,6.359 155.672,7.712 	"/>
	<path fill-rule="evenodd" clip-rule="evenodd" fill="#C7C8CA" d="M175.865,22.093c-1.725,0-3.264,0.924-4.095,2.478
		c-0.493,0.925-0.722,1.985-0.722,3.325c0,1.569,0.43,2.863,1.292,3.831c0.877,1.001,2.016,1.479,3.493,1.479
		c1.217,0,2.123-0.308,2.97-1l-0.984-1.356l-0.215,0.17c-0.524,0.354-1.032,0.524-1.616,0.524c-0.924,0-1.632-0.416-2.063-1.2
		c-0.322-0.586-0.446-1.402-0.446-2.863c0-1.248,0.186-2.14,0.602-2.756c0.385-0.57,1.093-0.923,1.814-0.923
		c0.602,0,1.171,0.2,1.71,0.599l0.97-1.463C177.989,22.431,176.927,22.093,175.865,22.093z M161.88,33.021h2.14v-4.771h3.078v4.771
		h2.186V22.324h-2.186v4.154h-3.078v-4.154h-2.14V33.021z M154.927,26.711c0.199-0.801,0.508-2.063,0.508-2.063
		s0.322,1.399,0.43,1.894c0.23,1.03,0.586,2.153,0.586,2.153h-2.094C154.586,27.988,154.726,27.48,154.927,26.711z M150.832,33.021
		h2.246l0.754-2.538h3.141l0.754,2.538h2.309l-3.371-10.729h-2.324L150.832,33.021z M146.541,22.001
		c-2.263,0-3.831,1.354-3.831,3.31c0,0.6,0.154,1.152,0.446,1.63c0.384,0.647,1.046,1.063,2.108,1.354l1.186,0.325
		c0.954,0.244,1.4,0.691,1.4,1.384c0,0.955-0.647,1.462-1.878,1.462c-1.078,0-1.939-0.338-2.939-0.861l-0.8,1.678
		c1.076,0.616,2.431,0.97,3.646,0.97c2.663,0,4.417-1.433,4.417-3.601c0-1.587-0.954-2.711-2.708-3.188l-1.294-0.353
		c-0.893-0.248-1.185-0.524-1.185-1.078c0-0.724,0.615-1.23,1.493-1.23c0.801,0,1.522,0.23,2.493,0.816l1.017-1.541
		C149.174,22.4,147.851,22.001,146.541,22.001z"/>
</g>
</svg>
